<?xml version="1.0" encoding="utf-8"?>
<!-- Generator: Adobe Illustrator 21.0.0, SVG Export Plug-In . SVG Version: 6.00 Build 0)  -->
<svg version="1.1" id="组_36" xmlns="http://www.w3.org/2000/svg" xmlns:xlink="http://www.w3.org/1999/xlink" x="0px" y="0px"
	 viewBox="0 0 1200 253" style="enable-background:new 0 0 1200 253;" xml:space="preserve">
<style type="text/css">
	.st0{opacity:0.3;fill:#3CFFFC;enable-background:new    ;}
	.st1{opacity:0.2;fill:#FFFFFF;enable-background:new    ;}
	.st2{opacity:0.5;fill:#3CFFFC;enable-background:new    ;}
	.st3{fill:#3CFFFC;}
	.st4{font-family:'Alphakind';}
	.st5{font-size:16px;}
	.st6{fill:#FFFFFF;}
	.st7{font-family:'ArialMT';}
</style>
<path id="line_副本_53_拷贝_22" class="st0" d="M23,179h1v36h-1V179z M45,179h1v36h-1V179z M67,179h1v36h-1V179z M89,179h1v36
	h-1V179z M111,179h1v36h-1V179z M133,179h1v36h-1V179z M155,179h1v36h-1V179z M177,179h1v36h-1V179z M199,179h1v36h-1V179z M221,179
	h1v36h-1V179z M261,179h1v36h-1V179z M283,179h1v36h-1V179z M305,179h1v36h-1V179z M327,179h1v36h-1V179z M349,179h1v36h-1V179z
	 M371,179h1v36h-1V179z M393,179h1v36h-1V179z M415,179h1v36h-1V179z M437,179h1v36h-1V179z M459,179h1v36h-1V179z"/>
<path id="line_副本_53_拷贝_25" class="st1" d="M499,179h1v36h-1V179z M521,179h1v36h-1V179z M543,179h1v36h-1V179z M565,179h1
	v36h-1V179z M587,179h1v36h-1V179z M609,179h1v36h-1V179z M631,179h1v36h-1V179z M653,179h1v36h-1V179z M675,179h1v36h-1V179z
	 M697,179h1v36h-1V179z M737,179h1v36h-1V179z M759,179h1v36h-1V179z M781,179h1v36h-1V179z M803,179h1v36h-1V179z M825,179h1v36h-1
	V179z M847,179h1v36h-1V179z M869,179h1v36h-1V179z M891,179h1v36h-1V179z M913,179h1v36h-1V179z M935,179h1v36h-1V179z M975,179h1
	v36h-1V179z M997,179h1v36h-1V179z M1019,179h1v36h-1V179z M1041,179h1v36h-1V179z M1063,179h1v36h-1V179z M1085,179h1v36h-1V179z
	 M1107,179h1v36h-1V179z M1129,179h1v36h-1V179z M1151,179h1v36h-1V179z M1173,179h1v36h-1V179z"/>
<path id="形状_751_副本_8" class="st2" d="M3.5,131c1.9,0,3.5,1.6,3.5,3.5S5.4,138,3.5,138S0,136.4,0,134.5S1.6,131,3.5,131z
	 M4,136H3V60h1V136z"/>
<path id="形状_751_副本_8_拷贝" class="st2" d="M241.5,131c1.9,0,3.5,1.6,3.5,3.5s-1.6,3.5-3.5,3.5s-3.5-1.6-3.5-3.5
	S239.6,131,241.5,131z M242,136h-1V60h1V136z"/>
<path id="形状_751_副本_5" class="st1" d="M478.5,131c1.9,0,3.5,1.6,3.5,3.5s-1.6,3.5-3.5,3.5s-3.5-1.6-3.5-3.5
	S476.6,131,478.5,131z M479,136h-1V60h1V136z M716.5,131c1.9,0,3.5,1.6,3.5,3.5s-1.6,3.5-3.5,3.5s-3.5-1.6-3.5-3.5
	S714.6,131,716.5,131z M717,136h-1V60h1V136z M954.5,131c1.9,0,3.5,1.6,3.5,3.5s-1.6,3.5-3.5,3.5s-3.5-1.6-3.5-3.5
	S952.6,131,954.5,131z M955,136h-1V60h1V136z M1192,131c1.9,0,3.5,1.6,3.5,3.5s-1.6,3.5-3.5,3.5s-3.5-1.6-3.5-3.5
	S1190.1,131,1192,131z M1192.5,136h-1V60h1V136z"/>
<rect id="line_副本_19" x="3" y="149" class="st0" width="1" height="66"/>
<rect id="line_副本_19_拷贝" x="241" y="149" class="st0" width="1" height="66"/>
<path id="line_副本_19_拷贝_2" class="st1" d="M479,149h1v66h-1V149z M716,149h1v66h-1V149z M954,149h1v66h-1V149z M1192,149h1
	v66h-1V149z"/>
<text transform="matrix(1 0 0 1 208.7366 252)" class="st3 st4 st5">2021 Q2-Q3</text>
<text transform="matrix(1 0 0 1 2.4724 250)" class="st3 st4 st5">2021 Q1</text>
<text transform="matrix(1 0 0 1 445.8004 252)" class="st6 st4 st5">2021 Q3</text>
<text transform="matrix(1 0 0 1 677.4086 252)" class="st6 st4 st5">2021 Q3-Q4</text>
<text transform="matrix(1 0 0 1 885.3611 252)" class="st6 st4 st5">2021 Q4 - 2022 Q1</text>
<text transform="matrix(1 0 0 1 1107.3766 252)" class="st6 st4 st5">2022 Q1-Q2</text>
<text transform="matrix(1 0 0 1 0.7383 37)" class="st6 st7 st5">DEXes Aggregator</text>
<text id="DeFi_Data_Analysis" transform="matrix(1 0 0 1 192 37)" class="st6 st7 st5">DeFi Data Analysis</text>
<text transform="matrix(1 0 0 1 419 12)" class="st1 st7 st5">Derivatives:</text>
<text transform="matrix(1 0 0 1 419 31.2)" class="st6 st7 st5">Yield Farming/Lending</text>
<text id="Asset_Viewer" transform="matrix(1 0 0 1 671 37)" class="st1 st7 st5">Asset Viewer</text>
<text id="Portfolio_Builder" transform="matrix(1 0 0 1 894 37)" class="st1 st7 st5">Portfolio Builder</text>
<text transform="matrix(1 0 0 1 1059.0547 12)" class="st6 st7 st5">Privacy Consensus</text>
<text transform="matrix(1 0 0 1 1149.4688 31.2)" class="st6 st7 st5">Trader</text>
</svg>
