<svg id="组_36" data-name="组 36" xmlns="http://www.w3.org/2000/svg" width="1200" height="253" viewBox="0 0 1200 253">
  <defs>
    <style>
      .cls-1, .cls-3, .cls-4, .cls-5 {
        fill: #3cfffc;
      }

      .cls-1, .cls-2, .cls-3 {
        fill-rule: evenodd;
      }

      .cls-1, .cls-4 {
        opacity: 0.3;
      }

      .cls-10, .cls-2, .cls-6, .cls-7, .cls-8, .cls-9 {
        fill: #fff;
      }

      .cls-10, .cls-2, .cls-6, .cls-9 {
        opacity: 0.2;
      }

      .cls-3 {
        opacity: 0.5;
      }

      .cls-10, .cls-5, .cls-6, .cls-7, .cls-8, .cls-9 {
        font-size: 16px;
      }

      .cls-5, .cls-6, .cls-7 {
        text-anchor: middle;
      }

      .cls-5, .cls-6 {
        font-family: Alphakind;
      }

      .cls-10, .cls-7, .cls-8, .cls-9 {
        font-family: "Myriad Pro";
      }

      .cls-10 {
        text-anchor: end;
      }
    </style>
  </defs>
  <path id="line__53__22" data-name="line  53  22" class="cls-1" d="M23,179h1v36H23V179Zm22,0h1v36H45V179Zm22,0h1v36H67V179Zm22,0h1v36H89V179Zm22,0h1v36h-1V179Zm22,0h1v36h-1V179Zm22,0h1v36h-1V179Zm22,0h1v36h-1V179Zm22,0h1v36h-1V179Zm22,0h1v36h-1V179Zm40,0h1v36h-1V179Zm22,0h1v36h-1V179Zm22,0h1v36h-1V179Zm22,0h1v36h-1V179Zm22,0h1v36h-1V179Zm22,0h1v36h-1V179Zm22,0h1v36h-1V179Zm22,0h1v36h-1V179Zm22,0h1v36h-1V179Zm22,0h1v36h-1V179Z"/>
  <path id="line__53__25" data-name="line  53  25" class="cls-2" d="M499,179h1v36h-1V179Zm22,0h1v36h-1V179Zm22,0h1v36h-1V179Zm22,0h1v36h-1V179Zm22,0h1v36h-1V179Zm22,0h1v36h-1V179Zm22,0h1v36h-1V179Zm22,0h1v36h-1V179Zm22,0h1v36h-1V179Zm22,0h1v36h-1V179Zm40,0h1v36h-1V179Zm22,0h1v36h-1V179Zm22,0h1v36h-1V179Zm22,0h1v36h-1V179Zm22,0h1v36h-1V179Zm22,0h1v36h-1V179Zm22,0h1v36h-1V179Zm22,0h1v36h-1V179Zm22,0h1v36h-1V179Zm22,0h1v36h-1V179Zm40,0h1v36h-1V179Zm22,0h1v36h-1V179Zm22,0h1v36h-1V179Zm22,0h1v36h-1V179Zm22,0h1v36h-1V179Zm22,0h1v36h-1V179Zm22,0h1v36h-1V179Zm22,0h1v36h-1V179Zm22,0h1v36h-1V179Zm22,0h1v36h-1V179Z"/>
  <path id="_751__8" data-name=" 751  8" class="cls-3" d="M3.5,131A3.5,3.5,0,1,1,0,134.5,3.5,3.5,0,0,1,3.5,131ZM4,136H3V60H4v76Z"/>
  <path id="_751__8_" data-name=" 751  8 " class="cls-3" d="M241.5,131a3.5,3.5,0,1,1-3.5,3.5A3.5,3.5,0,0,1,241.5,131Zm0.5,5h-1V60h1v76Z"/>
  <path id="_751__5" data-name=" 751  5" class="cls-2" d="M478.5,131a3.5,3.5,0,1,1-3.5,3.5A3.5,3.5,0,0,1,478.5,131Zm0.5,5h-1V60h1v76Zm237.5-5a3.5,3.5,0,1,1-3.5,3.5A3.5,3.5,0,0,1,716.5,131Zm0.5,5h-1V60h1v76Zm237.5-5a3.5,3.5,0,1,1-3.5,3.5A3.5,3.5,0,0,1,954.5,131Zm0.5,5h-1V60h1v76Zm237-5a3.5,3.5,0,1,1-3.5,3.5A3.5,3.5,0,0,1,1192,131Zm0.5,5h-1V60h1v76Z"/>
  <rect id="line__19" data-name="line  19" class="cls-4" x="3" y="149" width="1" height="66"/>
  <rect id="line__19_" data-name="line  19 " class="cls-4" x="241" y="149" width="1" height="66"/>
  <path id="line__19__2" data-name="line  19  2" class="cls-2" d="M479,149h1v66h-1V149Zm237,0h1v66h-1V149Zm238,0h1v66h-1V149Zm238,0h1v66h-1V149Z"/>
  <text id="_2021_Q2-Q3" data-name="2021 Q2-Q3" class="cls-5" x="252" y="252"><tspan x="252">2021 Q2-Q3</tspan></text>
  <text id="_2021_Q1" data-name="2021 Q1" class="cls-5" x="30" y="250"><tspan x="30">2021 Q1</tspan></text>
  <text id="_2021_Q3" data-name="2021 Q3" class="cls-6" x="475" y="252"><tspan x="475">2021 Q3</tspan></text>
  <text id="_2021_Q3-Q4" data-name="2021 Q3-Q4" class="cls-6" x="720" y="252"><tspan x="720">2021 Q3-Q4</tspan></text>
  <text id="_2021_Q4_-_2022_Q1" data-name="2021 Q4 - 2022 Q1" class="cls-6" x="952" y="252"><tspan x="952">2021 Q4 - 2022 Q1</tspan></text>
  <text id="_2022_Q1-Q2" data-name="2022 Q1-Q2" class="cls-6" x="1151" y="252"><tspan x="1151">2022 Q1-Q2</tspan></text>
  <text id="DEXes_Aggregator" data-name="DEXes Aggregator" class="cls-7" x="63" y="37"><tspan x="63">DEXes Aggregator</tspan></text>
  <text id="DeFi_Data_Analysis" data-name="DeFi Data Analysis" class="cls-8" x="192" y="37">DeFi Data Analysis</text>
  <text id="Derivatives:_Yield_Farming_Lending" data-name="Derivatives: Yield Farming/Lending" class="cls-9" x="419" y="12">Derivatives:<tspan x="419" dy="19.2">Yield Farming/Lending</tspan></text>
  <text id="Asset_Viewer" data-name="Asset Viewer" class="cls-9" x="671" y="37">Asset Viewer</text>
  <text id="Portfolio_Builder" data-name="Portfolio Builder" class="cls-9" x="894" y="37">Portfolio Builder</text>
  <text id="Privacy_Consensus_Trader" data-name="Privacy Consensus Trader" class="cls-10" x="1196" y="12"><tspan x="1196">Privacy Consensus</tspan><tspan x="1196" dy="19.2">Trader</tspan></text>
</svg>
