<svg xmlns="http://www.w3.org/2000/svg" xmlns:xlink="http://www.w3.org/1999/xlink" width="1200" height="800" viewBox="0 0 1200 800">
  <defs>
    <filter id="box" x="307.725" y="188.141" width="595.152" height="479.058" filterUnits="userSpaceOnUse">
      <feOffset dx="1" input="SourceAlpha"/>
      <feGaussianBlur stdDeviation="23" result="blur"/>
      <feFlood flood-color="#4c6ef8" flood-opacity="0.502"/>
      <feComposite operator="in" in2="blur"/>
      <feComposite in="SourceGraphic"/>
    </filter>
    <linearGradient id="linear-gradient" x1="0.37" y1="-2.952" x2="0.5" y2="1" gradientUnits="objectBoundingBox">
      <stop offset="0" stop-color="#6494fa"/>
      <stop offset="1" stop-color="#415df8"/>
    </linearGradient>
    <linearGradient id="linear-gradient-2" x1="0.143" y1="0.112" x2="0.755" y2="0.795" gradientUnits="objectBoundingBox">
      <stop offset="0" stop-color="#6494fa"/>
      <stop offset="1" stop-color="#366ae8"/>
    </linearGradient>
    <linearGradient id="linear-gradient-3" x1="0.168" x2="1" y2="1" gradientUnits="objectBoundingBox">
      <stop offset="0" stop-color="#fff"/>
      <stop offset="1" stop-color="#b2c2f6"/>
    </linearGradient>
    <radialGradient id="radial-gradient" cx="0" cy="0.5" r="0.5" gradientTransform="matrix(1, 0, 0, -0.001, 0, 0.501)" gradientUnits="objectBoundingBox">
      <stop offset="0" stop-color="#d33665"/>
      <stop offset="1" stop-color="#eb4f72"/>
    </radialGradient>
    <linearGradient id="linear-gradient-4" x1="0.194" y1="0.302" x2="0.8" y2="1" gradientUnits="objectBoundingBox">
      <stop offset="0" stop-color="#5591eb"/>
      <stop offset="1" stop-color="#7c4dcd"/>
    </linearGradient>
    <linearGradient id="linear-gradient-5" x1="0.5" x2="0.5" y2="1" gradientUnits="objectBoundingBox">
      <stop offset="0" stop-color="#fe554f"/>
      <stop offset="1" stop-color="#fc8b61"/>
    </linearGradient>
    <linearGradient id="linear-gradient-6" x1="0.16" y1="0.147" x2="0.787" y2="0.865" gradientUnits="objectBoundingBox">
      <stop offset="0" stop-color="#6165d7"/>
      <stop offset="1" stop-color="#8b5cde"/>
    </linearGradient>
    <linearGradient id="linear-gradient-7" x1="0.163" y1="0.171" x2="0.758" y2="0.92" gradientUnits="objectBoundingBox">
      <stop offset="0" stop-color="#fe8b8d"/>
      <stop offset="1" stop-color="#fc74b4"/>
    </linearGradient>
    <linearGradient id="linear-gradient-8" x1="0.212" y1="0.062" x2="0.706" y2="0.882" gradientUnits="objectBoundingBox">
      <stop offset="0" stop-color="#fd5d51"/>
      <stop offset="1" stop-color="#fc825e"/>
    </linearGradient>
    <linearGradient id="linear-gradient-9" x2="1" y2="1" gradientUnits="objectBoundingBox">
      <stop offset="0" stop-color="#91eeee"/>
      <stop offset="1" stop-color="#3cfffc"/>
    </linearGradient>
    <linearGradient id="linear-gradient-10" x1="0.262" x2="0.778" y2="1" xlink:href="#linear-gradient-9"/>
    <linearGradient id="linear-gradient-11" x1="0.5" x2="0.5" y2="1" gradientUnits="objectBoundingBox">
      <stop offset="0" stop-color="#3cfffc"/>
      <stop offset="1" stop-color="#91eeee"/>
    </linearGradient>
    <linearGradient id="linear-gradient-12" x1="0.16" y1="0.147" x2="0.787" y2="0.865" gradientUnits="objectBoundingBox">
      <stop offset="0" stop-color="#fd6453"/>
      <stop offset="1" stop-color="#8b5cde"/>
    </linearGradient>
    <clipPath id="clip-banner_pic2">
      <rect width="1200" height="800"/>
    </clipPath>
  </defs>
  <g id="banner_pic2" clip-path="url(#clip-banner_pic2)">
    <g id="banner_pic" transform="translate(-721.324 -156)">
      <g id="yuan" transform="translate(871.324 106)" opacity="0.24">
        <path id="_1" data-name="1" d="M450,0C698.528,0,900,201.472,900,450a452.953,452.953,0,0,1-9.672,93.242C847.652,746.8,666.717,900,450,900,201.472,900,0,698.528,0,450S201.472,0,450,0Z" fill="none" opacity="0.1"/>
        <path id="_2" data-name="2" d="M398.563,0c220.12,0,398.563,178.443,398.563,398.563S618.683,797.126,398.563,797.126,0,618.683,0,398.563,178.443,0,398.563,0Z" transform="translate(51.437 51.437)" fill="#8a7cfd" opacity="0.2"/>
        <path id="_3" data-name="3" d="M352.1,0c194.462,0,352.1,157.642,352.1,352.1s-157.642,352.1-352.1,352.1S0,546.565,0,352.1,157.642,0,352.1,0Z" transform="translate(97.896 97.896)" fill="#8a7cfd" opacity="0.4"/>
        <path id="_4" data-name="4" d="M303.985,0C471.872,0,607.97,136.1,607.97,303.985S471.872,607.97,303.985,607.97,0,471.871,0,303.985,136.1,0,303.985,0Z" transform="translate(146.015 146.015)" fill="#8a7cfd" opacity="0.6"/>
        <path id="_5" data-name="5" d="M249.23,0c137.646,0,249.23,111.584,249.23,249.23s-111.584,249.23-249.23,249.23S0,386.875,0,249.23,111.584,0,249.23,0Z" transform="translate(200.77 200.77)" fill="#8a7cfd" opacity="0.8"/>
      </g>
      <g id="messgi" transform="translate(1097.049 413.141)">
        <g transform="matrix(1, 0, 0, 1, -375.73, -257.14)" filter="url(#box)">
          <path id="box-2" data-name="box" d="M13.853,0H443.3c7.651,0,13.853,6.47,13.853,14.452V326.606c0,7.981-6.2,14.452-13.853,14.452H13.853C6.2,341.058,0,334.588,0,326.606V14.452C0,6.47,6.2,0,13.853,0Z" transform="translate(375.73 257.14)" fill="#415df8"/>
        </g>
        <g id="box-3" data-name="box" transform="translate(0.469 40.465)" fill="#fff" stroke="#707070" stroke-width="1">
          <path d="M0,0H456.671a0,0,0,0,1,0,0V290.594a10,10,0,0,1-10,10H10a10,10,0,0,1-10-10V0A0,0,0,0,1,0,0Z" stroke="none"/>
          <path d="M1,.5H455.671a.5.5,0,0,1,.5.5V290.594a9.5,9.5,0,0,1-9.5,9.5H10a9.5,9.5,0,0,1-9.5-9.5V1A.5.5,0,0,1,1,.5Z" fill="none"/>
        </g>
        <path id="td" d="M13.853,0H443.3c7.651,0,13.853,6.47,13.853,14.452V40.465H0V14.452C0,6.47,6.2,0,13.853,0Z" transform="translate(0 1.445)" fill="url(#linear-gradient)"/>
        <circle id="dot" cx="8.671" cy="8.671" r="8.671" transform="translate(20.701 14.452)" opacity="0.5" style="mix-blend-mode: overlay;isolation: isolate"/>
        <circle id="dot-2" data-name="dot" cx="8.671" cy="8.671" r="8.671" transform="translate(48.159 14.452)" opacity="0.1" style="mix-blend-mode: overlay;isolation: isolate"/>
        <circle id="dot-3" data-name="dot" cx="8.671" cy="8.671" r="8.671" transform="translate(75.617 14.452)" opacity="0.1" style="mix-blend-mode: overlay;isolation: isolate"/>
        <path id="text" d="M-953.843-7940.167H-1229.87a3.55,3.55,0,0,1-3.537-1.574,3.556,3.556,0,0,1,0-3.872,3.555,3.555,0,0,1,3.537-1.573h276.027a3.545,3.545,0,0,1,3.534,1.573,3.555,3.555,0,0,1,0,3.872,3.545,3.545,0,0,1-2.977,1.618A3.34,3.34,0,0,1-953.843-7940.167Zm-46.766-13.021a1.673,1.673,0,0,0-.85,0h-137.294a3.634,3.634,0,0,1-2.674-3.509,3.638,3.638,0,0,1,2.674-3.514h137.291a1.644,1.644,0,0,0,.854,0h49.25a3.643,3.643,0,0,1,2.68,3.514,3.639,3.639,0,0,1-2.68,3.509Zm-201.181,0a3.64,3.64,0,0,1-2.677-3.509,3.644,3.644,0,0,1,2.677-3.514h50.422a3.644,3.644,0,0,1,2.677,3.514,3.64,3.64,0,0,1-2.677,3.509Zm-29.525,0a3.64,3.64,0,0,1-2.677-3.509,3.644,3.644,0,0,1,2.677-3.514h16.967a3.644,3.644,0,0,1,2.677,3.514,3.64,3.64,0,0,1-2.677,3.509Zm263-12.818a3.635,3.635,0,0,1-2.674-3.511,3.64,3.64,0,0,1,2.674-3.514h16.967a3.643,3.643,0,0,1,2.677,3.514,3.638,3.638,0,0,1-2.677,3.511Zm-61.749,0a1.708,1.708,0,0,0-.854,0H-1169.5a3.638,3.638,0,0,1-2.677-3.511,3.643,3.643,0,0,1,2.677-3.514h138.576a1.665,1.665,0,0,0,.854,0h49.134a3.646,3.646,0,0,1,2.68,3.514,3.641,3.641,0,0,1-2.68,3.511Zm-201.256,0a3.642,3.642,0,0,1-2.677-3.511,3.647,3.647,0,0,1,2.677-3.514h49.25a3.645,3.645,0,0,1,2.68,3.514,3.64,3.64,0,0,1-2.68,3.511Zm392.535-11.793h-74.876a3.552,3.552,0,0,1-3.534-1.575,3.552,3.552,0,0,1,0-3.87,3.555,3.555,0,0,1,3.534-1.576h74.876a3.559,3.559,0,0,1,3.537,1.576,3.552,3.552,0,0,1,0,3.87,3.566,3.566,0,0,1-2.983,1.62A3.522,3.522,0,0,1-838.781-7977.8Zm-190.863-1.008a1.611,1.611,0,0,0-.85,0h-137.294a3.649,3.649,0,0,1-2.674-3.513,3.646,3.646,0,0,1,2.674-3.514h137.294a1.652,1.652,0,0,0,.85,0h49.25a3.645,3.645,0,0,1,2.68,3.514,3.647,3.647,0,0,1-2.68,3.513Zm-201.181,0a3.648,3.648,0,0,1-2.677-3.513,3.646,3.646,0,0,1,2.677-3.514h49.253a3.646,3.646,0,0,1,2.677,3.514,3.648,3.648,0,0,1-2.677,3.513Zm345.266-12.025a3.643,3.643,0,0,1-2.677-3.514,3.641,3.641,0,0,1,2.677-3.513h49.28a3.641,3.641,0,0,1,2.677,3.513,3.643,3.643,0,0,1-2.677,3.514Zm-29.5,0a3.643,3.643,0,0,1-2.677-3.514,3.641,3.641,0,0,1,2.677-3.513h16.967a3.641,3.641,0,0,1,2.677,3.513,3.643,3.643,0,0,1-2.677,3.514Zm-85.12-1a1.729,1.729,0,0,0-.853,0h-137.288a3.177,3.177,0,0,1-2.686-3.511,3.172,3.172,0,0,1,2.743-3.508h137.294a1.742,1.742,0,0,0,.851,0h49.25a3.173,3.173,0,0,1,2.689,3.508,3.176,3.176,0,0,1-2.745,3.511Zm-201.122,0a3.177,3.177,0,0,1-2.686-3.511,3.173,3.173,0,0,1,2.686-3.508h50.422a3.173,3.173,0,0,1,2.689,3.508,3.177,3.177,0,0,1-2.689,3.511Zm-29.526,0a3.177,3.177,0,0,1-2.686-3.511,3.173,3.173,0,0,1,2.686-3.508h16.952a3.175,3.175,0,0,1,2.689,3.508,3.175,3.175,0,0,1-2.674,3.511Zm262.993-12.814a3.183,3.183,0,0,1-2.689-3.515,3.181,3.181,0,0,1,2.689-3.511h16.964a3.179,3.179,0,0,1,2.689,3.511,3.181,3.181,0,0,1-2.689,3.515Zm-61.752,0a1.6,1.6,0,0,0-.854,0h-138.576a3.186,3.186,0,0,1-2.689-3.515,3.183,3.183,0,0,1,2.689-3.511h138.519a1.611,1.611,0,0,0,.85,0h49.309a3.181,3.181,0,0,1,2.689,3.511,3.183,3.183,0,0,1-2.689,3.515Zm-201.241,0a3.181,3.181,0,0,1-2.686-3.515,3.179,3.179,0,0,1,2.686-3.511h49.208a3.179,3.179,0,0,1,2.689,3.511,3.18,3.18,0,0,1-2.644,3.515Zm277.473-12.172h-276.024a3.828,3.828,0,0,1-4.078-3.511,3.829,3.829,0,0,1,4.078-3.509h276.024a3.826,3.826,0,0,1,4.075,3.509,3.83,3.83,0,0,1-3.813,3.524A2.354,2.354,0,0,1-953.352-8016.818Zm-46.766-13.033a1.633,1.633,0,0,0-.851,0h-137.294a3.18,3.18,0,0,1-2.686-3.512,3.177,3.177,0,0,1,2.686-3.512h137.294a1.7,1.7,0,0,0,.851,0h49.25a3.177,3.177,0,0,1,2.689,3.512,3.18,3.18,0,0,1-2.689,3.512Zm-201.181,0a3.18,3.18,0,0,1-2.686-3.512,3.177,3.177,0,0,1,2.686-3.512h50.422a3.177,3.177,0,0,1,2.689,3.512,3.18,3.18,0,0,1-2.689,3.512Zm-29.526,0a3.18,3.18,0,0,1-2.686-3.512,3.177,3.177,0,0,1,2.686-3.512h16.967a3.177,3.177,0,0,1,2.686,3.512,3.18,3.18,0,0,1-2.686,3.512Zm313.468-11.286a3.649,3.649,0,0,1-2.674-3.514,3.649,3.649,0,0,1,2.674-3.514h49.208a3.645,3.645,0,0,1,2.677,3.514,3.645,3.645,0,0,1-2.677,3.514Zm-50.475-1.532a3.181,3.181,0,0,1-2.689-3.511,3.178,3.178,0,0,1,2.689-3.512h16.964a3.175,3.175,0,0,1,2.689,3.512,3.178,3.178,0,0,1-2.689,3.511Zm-61.8,0a1.623,1.623,0,0,0-.851,0h-138.534a3.183,3.183,0,0,1-2.689-3.511,3.18,3.18,0,0,1,2.689-3.512h138.519a1.673,1.673,0,0,0,.85,0h49.265a3.175,3.175,0,0,1,2.689,3.512,3.178,3.178,0,0,1-2.689,3.511h-49.25Zm-201.2,0a3.179,3.179,0,0,1-2.686-3.511,3.176,3.176,0,0,1,2.686-3.512h49.208a3.175,3.175,0,0,1,2.689,3.512,3.178,3.178,0,0,1-2.644,3.511Zm342.951-11.489a3.647,3.647,0,0,1-2.677-3.513,3.642,3.642,0,0,1,2.677-3.512h49.253a3.642,3.642,0,0,1,2.677,3.512,3.647,3.647,0,0,1-2.677,3.513Zm-29.484,0a3.648,3.648,0,0,1-2.674-3.513,3.643,3.643,0,0,1,2.674-3.512h16.925a3.642,3.642,0,0,1,2.677,3.512,3.647,3.647,0,0,1-2.677,3.513Zm-36.486-1.616H-1229.87a3.509,3.509,0,0,1-.55.042,3.556,3.556,0,0,1-2.984-1.622,3.54,3.54,0,0,1,0-3.869,3.548,3.548,0,0,1,3.534-1.578h276.027a3.547,3.547,0,0,1,3.534,1.578,3.55,3.55,0,0,1,0,3.869,3.551,3.551,0,0,1-2.983,1.622A3.51,3.51,0,0,1-953.843-8055.775Zm98.256-11.2a3.645,3.645,0,0,1-2.677-3.515,3.635,3.635,0,0,1,2.677-3.508h16.967a3.639,3.639,0,0,1,2.677,3.508,3.648,3.648,0,0,1-2.677,3.515Zm-61.77,0a3.649,3.649,0,0,1-2.674-3.515,3.639,3.639,0,0,1,2.674-3.508h49.208a3.635,3.635,0,0,1,2.677,3.508,3.645,3.645,0,0,1-2.677,3.515Zm-83.255-1.821a1.592,1.592,0,0,0-.851,0h-137.291a3.639,3.639,0,0,1-2.677-3.51,3.64,3.64,0,0,1,2.677-3.514h137.291a1.653,1.653,0,0,0,.851,0h49.253a3.64,3.64,0,0,1,2.677,3.514,3.639,3.639,0,0,1-2.677,3.51Zm-201.178,0a3.639,3.639,0,0,1-2.677-3.51,3.641,3.641,0,0,1,2.677-3.514h50.422a3.64,3.64,0,0,1,2.677,3.514,3.639,3.639,0,0,1-2.677,3.51Zm-29.525,0a3.639,3.639,0,0,1-2.677-3.51,3.641,3.641,0,0,1,2.677-3.514h16.967a3.641,3.641,0,0,1,2.674,3.514,3.64,3.64,0,0,1-2.674,3.51Zm263-12.82a3.638,3.638,0,0,1-2.677-3.507,3.646,3.646,0,0,1,2.677-3.516h16.967a3.643,3.643,0,0,1,2.677,3.516,3.635,3.635,0,0,1-2.677,3.507Zm-61.749,0a1.644,1.644,0,0,0-.854,0h-138.593a3.638,3.638,0,0,1-2.677-3.507,3.646,3.646,0,0,1,2.677-3.516h138.578a1.624,1.624,0,0,0,.854,0h49.134a3.646,3.646,0,0,1,2.677,3.516,3.638,3.638,0,0,1-2.677,3.507Zm-201.256,0a3.635,3.635,0,0,1-2.677-3.507,3.643,3.643,0,0,1,2.677-3.516h49.25a3.645,3.645,0,0,1,2.68,3.516,3.637,3.637,0,0,1-2.68,3.507Zm311.469-11.836a3.557,3.557,0,0,1,0-3.873,3.546,3.546,0,0,1,3.531-1.576h74.891a3.558,3.558,0,0,1,3.537,1.576,3.557,3.557,0,0,1,0,3.873,3.559,3.559,0,0,1-2.984,1.617,3.3,3.3,0,0,1-.553-.042h-74.891a3.413,3.413,0,0,1-.553.044A3.546,3.546,0,0,1-919.847-8093.455Zm-109.8-.968a1.707,1.707,0,0,0-.853,0h-137.288a3.64,3.64,0,0,1-2.68-3.511,3.644,3.644,0,0,1,2.68-3.512H-1030.5a1.583,1.583,0,0,0,.853,0h49.25a3.644,3.644,0,0,1,2.68,3.512,3.641,3.641,0,0,1-2.68,3.511Zm-201.178,0a3.641,3.641,0,0,1-2.68-3.511,3.644,3.644,0,0,1,2.68-3.512h49.25a3.642,3.642,0,0,1,2.674,3.512,3.639,3.639,0,0,1-2.674,3.511Zm342.631-10.459a3.649,3.649,0,0,1-2.677-3.514,3.644,3.644,0,0,1,2.677-3.514h49.253a3.644,3.644,0,0,1,2.677,3.514,3.649,3.649,0,0,1-2.677,3.514Zm-29.526,0a3.647,3.647,0,0,1-2.674-3.514,3.641,3.641,0,0,1,2.674-3.514h16.967a3.644,3.644,0,0,1,2.677,3.514,3.649,3.649,0,0,1-2.677,3.514Zm-82.458-2.562a1.644,1.644,0,0,0-.854,0h-137.29a3.178,3.178,0,0,1-2.686-3.51,3.179,3.179,0,0,1,2.746-3.513h137.288a1.623,1.623,0,0,0,.854,0h49.25a3.177,3.177,0,0,1,2.689,3.513,3.174,3.174,0,0,1-2.745,3.51Zm-201.125,0a3.18,3.18,0,0,1-2.689-3.51,3.179,3.179,0,0,1,2.689-3.513h50.425a3.177,3.177,0,0,1,2.683,3.513,3.177,3.177,0,0,1-2.683,3.51Zm-29.523,0a3.178,3.178,0,0,1-2.689-3.51,3.177,3.177,0,0,1,2.689-3.513h16.949a3.179,3.179,0,0,1,2.689,3.513,3.175,3.175,0,0,1-2.674,3.51Zm374.916-10.3a3.64,3.64,0,0,1-2.677-3.51,3.642,3.642,0,0,1,2.677-3.513h16.967a3.645,3.645,0,0,1,2.677,3.513,3.643,3.643,0,0,1-2.677,3.51Zm-61.811,0a3.641,3.641,0,0,1-2.674-3.51,3.643,3.643,0,0,1,2.674-3.513h49.253a3.642,3.642,0,0,1,2.674,3.513,3.641,3.641,0,0,1-2.674,3.51Zm-50.118-2.514a3.182,3.182,0,0,1-2.689-3.51,3.183,3.183,0,0,1,2.689-3.513h16.967a3.179,3.179,0,0,1,2.689,3.513,3.177,3.177,0,0,1-2.689,3.51Zm-61.752,0a1.653,1.653,0,0,0-.851,0h-138.576a3.18,3.18,0,0,1-2.689-3.51,3.181,3.181,0,0,1,2.689-3.513H-1030.5a1.663,1.663,0,0,0,.853,0h49.309a3.183,3.183,0,0,1,2.689,3.513,3.182,3.182,0,0,1-2.689,3.51Zm-201.235,0a3.178,3.178,0,0,1-2.689-3.51,3.179,3.179,0,0,1,2.689-3.513h49.208a3.177,3.177,0,0,1,2.683,3.513,3.174,3.174,0,0,1-2.641,3.51Zm313.6-10.29a3.646,3.646,0,0,1-2.674-3.512,3.638,3.638,0,0,1,2.674-3.51h49.253a3.641,3.641,0,0,1,2.677,3.51,3.649,3.649,0,0,1-2.677,3.512Zm-36.129-1.879h-276.024a3.829,3.829,0,0,1-4.075-3.51,3.835,3.835,0,0,1,4.075-3.515h276.024a3.836,3.836,0,0,1,4.078,3.515,3.832,3.832,0,0,1-3.816,3.523A2.386,2.386,0,0,1-953.355-8132.431Zm65.657-11.155a3.178,3.178,0,0,1-2.689-3.512,3.178,3.178,0,0,1,2.689-3.514h49.25a3.183,3.183,0,0,1,2.689,3.514,3.183,3.183,0,0,1-2.689,3.512Zm-29.529,0a3.18,3.18,0,0,1-2.686-3.512,3.181,3.181,0,0,1,2.686-3.514h16.967a3.183,3.183,0,0,1,2.689,3.514,3.183,3.183,0,0,1-2.689,3.512Zm-82.892-1.879a1.665,1.665,0,0,0-.854,0H-1138.26a3.182,3.182,0,0,1-2.689-3.513,3.178,3.178,0,0,1,2.689-3.51h137.288a1.623,1.623,0,0,0,.854,0h49.25a3.176,3.176,0,0,1,2.689,3.51,3.179,3.179,0,0,1-2.689,3.513Zm-201.181,0a3.182,3.182,0,0,1-2.689-3.513,3.179,3.179,0,0,1,2.689-3.51h50.425a3.176,3.176,0,0,1,2.683,3.51,3.18,3.18,0,0,1-2.683,3.513Zm-29.523,0a3.18,3.18,0,0,1-2.689-3.513,3.176,3.176,0,0,1,2.689-3.51h16.964a3.178,3.178,0,0,1,2.689,3.51,3.182,3.182,0,0,1-2.689,3.513Zm375.407-10.94a3.183,3.183,0,0,1-2.689-3.513,3.18,3.18,0,0,1,2.689-3.51h16.967a3.18,3.18,0,0,1,2.689,3.51,3.183,3.183,0,0,1-2.689,3.513Zm-61.812,0a3.181,3.181,0,0,1-2.686-3.513,3.177,3.177,0,0,1,2.686-3.51h49.253a3.179,3.179,0,0,1,2.645,3.51,3.181,3.181,0,0,1-2.645,3.513Zm-50.609-1.879a3.183,3.183,0,0,1-2.689-3.513,3.185,3.185,0,0,1,2.689-3.512h16.967a3.18,3.18,0,0,1,2.689,3.512,3.179,3.179,0,0,1-2.689,3.513Zm-61.794,0a1.687,1.687,0,0,0-.854,0h-138.531a3.181,3.181,0,0,1-2.689-3.513,3.183,3.183,0,0,1,2.689-3.512H-1030.5a1.6,1.6,0,0,0,.853,0h49.265a3.182,3.182,0,0,1,2.689,3.512,3.181,3.181,0,0,1-2.689,3.513Zm-201.193,0a3.179,3.179,0,0,1-2.689-3.513,3.181,3.181,0,0,1,2.689-3.512h49.208a3.178,3.178,0,0,1,2.683,3.512,3.174,3.174,0,0,1-2.641,3.513Zm310.91-13.785a3.834,3.834,0,0,1,4.09-3.514h74.873a3.835,3.835,0,0,1,4.078,3.514,3.832,3.832,0,0,1-4.078,3.51h-74.873a2.361,2.361,0,0,1-.274.012A3.834,3.834,0,0,1-919.913-8172.069Zm-306.885-6.244a7.227,7.227,0,0,1-7.225-7.224v-7.229a7.227,7.227,0,0,1,7.225-7.224h119.949a7.225,7.225,0,0,1,7.225,7.224v7.229a7.225,7.225,0,0,1-7.225,7.224Zm339.1-3.281a3.18,3.18,0,0,1-2.689-3.513,3.182,3.182,0,0,1,2.689-3.514h49.25a3.186,3.186,0,0,1,2.689,3.514,3.184,3.184,0,0,1-2.689,3.513Zm-29.529,0a3.182,3.182,0,0,1-2.686-3.513,3.184,3.184,0,0,1,2.686-3.514h16.967a3.186,3.186,0,0,1,2.689,3.514,3.184,3.184,0,0,1-2.689,3.513Zm61.812-12.82a3.178,3.178,0,0,1-2.689-3.51,3.185,3.185,0,0,1,2.689-3.514h16.967a3.185,3.185,0,0,1,2.689,3.514,3.178,3.178,0,0,1-2.689,3.51Zm-61.812,0a3.176,3.176,0,0,1-2.686-3.51,3.183,3.183,0,0,1,2.686-3.514h49.253a3.184,3.184,0,0,1,2.645,3.514,3.177,3.177,0,0,1-2.645,3.51Z" transform="translate(1261.948 8260.688)" opacity="0.11"/>
        <path id="dunpai" d="M726.843,590.257s-37.156,9.938-42.34,10.37c0,0-9.505,1.729-10.37,7.776v44.334s7.276,42.173,53.838,56.164c0,0,42.207-10.467,52.444-53.607V608.4s0-6.48-11.232-7.776C769.183,600.627,733.323,593.289,726.843,590.257Z" transform="translate(-497.823 -455.857)" fill-rule="evenodd" fill="url(#linear-gradient-2)"/>
        <g id="suo" transform="translate(206.659 164.749)">
          <path id="shape" d="M-2557.721-8330.445c-8.711,0-15.839-5.389-15.839-11.974V-8360.9c0-1.479,1.55-2.684,3.488-2.736a19.47,19.47,0,0,1,19.856-16.611,19.463,19.463,0,0,1,18.633,16.712,2.98,2.98,0,0,1,2.628,2.636v18.485c0,6.585-7.128,11.974-15.839,11.974Zm22.284-33.2a15.673,15.673,0,0,0-14.9-12.816,15.675,15.675,0,0,0-15.892,12.816Z" transform="translate(2573.559 8380.262)" stroke="rgba(0,0,0,0)" stroke-width="1" fill="url(#linear-gradient-3)"/>
          <path id="shape-2" data-name="shape" d="M-2572.739-8365.345l.749-8.131a3.734,3.734,0,0,1-1.57-3.043,3.74,3.74,0,0,1,3.739-3.743,3.741,3.741,0,0,1,3.741,3.743,3.733,3.733,0,0,1-1.57,3.043l.75,8.131a2.932,2.932,0,0,1-2.918,3.2A2.933,2.933,0,0,1-2572.739-8365.345Z" transform="translate(2592.208 8402.977)" fill="#3549e4"/>
        </g>
      </g>
      <g id="tips" transform="translate(874.469 199.213)">
        <path id="dot-4" data-name="dot" d="M11.43,0A11.43,11.43,0,1,1,0,11.43,11.43,11.43,0,0,1,11.43,0Z" transform="translate(138.346 90.344)" fill="url(#radial-gradient)"/>
        <circle id="dot-5" data-name="dot" cx="14.287" cy="14.287" r="14.287" transform="translate(774.56 164.937)" fill="url(#linear-gradient-4)"/>
        <path id="dot-6" data-name="dot" d="M8.572,0A8.572,8.572,0,1,1,0,8.572,8.572,8.572,0,0,1,8.572,0Z" transform="translate(89.556 530.663)" fill="url(#linear-gradient-5)"/>
        <g id="dot-7" data-name="dot" transform="translate(559.225 105.026)" opacity="0.8">
          <g id="组_1" data-name="组 1">
            <circle id="椭圆_18" data-name="椭圆 18" cx="10.116" cy="10.116" r="10.116" fill="#0e1427"/>
          </g>
          <g id="椭圆_4" data-name="椭圆 4" fill="#0e1427" stroke="#eb4f72" stroke-width="3">
            <circle cx="10.116" cy="10.116" r="10.116" stroke="none"/>
            <circle cx="10.116" cy="10.116" r="8.616" fill="none"/>
          </g>
          <circle id="椭圆_19" data-name="椭圆 19" cx="4.286" cy="4.286" r="4.286" transform="translate(5.83 5.83)" fill="#0e1427"/>
        </g>
        <g id="Assets" transform="translate(304.27 0)">
          <circle id="dot-8" data-name="dot" cx="71.435" cy="71.435" r="71.435" transform="translate(0 0)" fill="url(#linear-gradient-6)"/>
          <text id="Assets-2" data-name="Assets" transform="translate(70.29 65.406)" fill="#fff" font-size="26" font-family="Alphakind"><tspan x="-39.208" y="0">Assets</tspan><tspan x="-39.741" y="30">Stolen</tspan></text>
        </g>
        <g id="Scams" transform="translate(0 353.619)">
          <circle id="dot-9" data-name="dot" cx="55.47" cy="55.47" r="55.47" transform="translate(0 0)" fill="url(#linear-gradient-7)"/>
          <text id="Scams-2" data-name="Scams" transform="translate(54.394 65.852)" fill="#f8f7f7" font-size="26" font-family="Alphakind"><tspan x="-39.39" y="0">Scams</tspan></text>
          <g id="Rug_Pulls" data-name="Rug Pulls" transform="translate(617.523 250.897)">
            <circle id="dot-10" data-name="dot" cx="64.292" cy="64.292" r="64.292" transform="translate(0 0)" fill="url(#linear-gradient-8)"/>
            <text id="Rug_Pulls-2" data-name="Rug Pulls" transform="translate(66.961 56.626)" fill="#fff" font-size="27" font-family="Alphakind"><tspan x="-26.204" y="0">Rug </tspan><tspan x="-30.753" y="32">Pulls</tspan></text>
          </g>
        </g>
        <g id="Illegal" transform="translate(407.103 104.631)">
          <g id="dot-11" data-name="dot" fill="#ed5174" stroke="#2a2c59" stroke-linejoin="round" stroke-width="2">
            <circle cx="17.859" cy="17.859" r="17.859" stroke="none"/>
            <circle cx="17.859" cy="17.859" r="16.859" fill="none"/>
          </g>
          <rect id="line" width="21.431" height="4.286" transform="translate(7.144 15.716)" fill="#fff"/>
        </g>
        <g id="Illegal-2" data-name="Illegal" transform="translate(68.224 436.62)">
          <g id="dot-12" data-name="dot" fill="#ed5174" stroke="#161b35" stroke-linejoin="round" stroke-width="2">
            <circle cx="17.859" cy="17.859" r="17.859" stroke="none"/>
            <circle cx="17.859" cy="17.859" r="16.859" fill="none"/>
          </g>
          <rect id="line-2" data-name="line" width="21.431" height="4.286" transform="translate(7.144 15.716)" fill="#fff"/>
        </g>
        <g id="Illegal-3" data-name="Illegal" transform="translate(703.19 701.039)">
          <g id="dot-13" data-name="dot" transform="translate(0)" fill="#ed5174" stroke="#11162c" stroke-linejoin="round" stroke-width="2">
            <circle cx="17.859" cy="17.859" r="17.859" stroke="none"/>
            <circle cx="17.859" cy="17.859" r="16.859" fill="none"/>
          </g>
          <rect id="line-3" data-name="line" width="21.431" height="4.286" transform="translate(7.144 15.716)" fill="#fff"/>
        </g>
        <path id="message" d="M-674.113-49.423l-5.206-6.941h-12.532a5.785,5.785,0,0,1-5.784-5.784V-85.285a5.785,5.785,0,0,1,5.784-5.784h38.561a5.784,5.784,0,0,1,5.784,5.784v23.137a5.784,5.784,0,0,1-5.784,5.784h-12.533l-5.206,6.941a1.931,1.931,0,0,1-1.543.771A1.93,1.93,0,0,1-674.113-49.423Zm-19.666-35.862v23.137a1.928,1.928,0,0,0,1.928,1.928h13.5a1.927,1.927,0,0,1,1.543.771l4.242,5.649,4.242-5.649a1.928,1.928,0,0,1,1.543-.771h13.5a1.928,1.928,0,0,0,1.928-1.928V-85.285a1.928,1.928,0,0,0-1.928-1.928h-38.561A1.928,1.928,0,0,0-693.779-85.285Zm9.64,17.353a1.928,1.928,0,0,1-1.928-1.928,1.928,1.928,0,0,1,1.928-1.929h15.425a1.928,1.928,0,0,1,1.928,1.929,1.928,1.928,0,0,1-1.928,1.928Zm0-7.712a1.928,1.928,0,0,1-1.928-1.929,1.928,1.928,0,0,1,1.928-1.928H-661a1.928,1.928,0,0,1,1.928,1.928A1.928,1.928,0,0,1-661-75.644Z" transform="translate(1242.125 138.925)" fill="url(#linear-gradient-9)"/>
        <path id="assets-3" data-name="assets" d="M-925.218-500.864a18.87,18.87,0,0,1-5.505-2.543c-2.258-1.651-2.732-3.406-2.732-4.591a1.993,1.993,0,0,1,1.994-1.993A2,2,0,0,1-929.469-508c0,.275.288.779,1.1,1.368a15.276,15.276,0,0,0,4.328,1.954,54.574,54.574,0,0,0,15.377,1.948,54.748,54.748,0,0,0,15.383-1.945,15.3,15.3,0,0,0,4.323-1.957c.8-.584,1.089-1.087,1.089-1.364a2,2,0,0,1,1.994-1.994,2,2,0,0,1,1.994,1.994c0,1.187-.473,2.946-2.732,4.591a19,19,0,0,1-5.5,2.542,58.764,58.764,0,0,1-16.555,2.121A58.592,58.592,0,0,1-925.218-500.864Zm14.822-5.893v-4.889h-3.79a1.994,1.994,0,0,1-1.993-1.993,1.994,1.994,0,0,1,1.993-1.994h3.79v-2.353h-3.79a1.994,1.994,0,0,1-1.993-1.994,1.994,1.994,0,0,1,1.993-1.994h2.234l-2.456-2.456a1.994,1.994,0,0,1,0-2.82,1.994,1.994,0,0,1,2.82,0l3.227,3.227,3.227-3.227a1.994,1.994,0,0,1,2.82,0,1.994,1.994,0,0,1,0,2.82l-2.456,2.456h2.153a1.994,1.994,0,0,1,1.994,1.994,1.994,1.994,0,0,1-1.994,1.994h-3.79v2.353h3.79a1.993,1.993,0,0,1,1.993,1.994,1.993,1.993,0,0,1-1.993,1.993h-3.79v4.889a1.994,1.994,0,0,1-1.994,1.994A1.994,1.994,0,0,1-910.4-506.758Zm-9.148-2.943a42.935,42.935,0,0,1-5.674-1.3,18.874,18.874,0,0,1-5.5-2.543c-2.258-1.649-2.732-3.406-2.732-4.589a2,2,0,0,1,1.994-1.994,2,2,0,0,1,1.994,1.994c0,.262.287.776,1.1,1.366a15.27,15.27,0,0,0,4.327,1.954,38.914,38.914,0,0,0,5.142,1.171,2,2,0,0,1,1.647,2.29,1.994,1.994,0,0,1-1.966,1.673A1.971,1.971,0,0,1-919.544-509.7Zm19.67-1.672a1.994,1.994,0,0,1,1.639-2.295,38.806,38.806,0,0,0,4.95-1.136,15.363,15.363,0,0,0,4.324-1.957c.8-.583,1.088-1.1,1.088-1.363a2,2,0,0,1,1.994-1.994,2,2,0,0,1,1.994,1.994c0,1.185-.474,2.943-2.732,4.589a18.98,18.98,0,0,1-5.5,2.542,42.874,42.874,0,0,1-5.465,1.257,1.981,1.981,0,0,1-.331.027A2,2,0,0,1-899.874-511.373Zm-19.67-8.37a42.944,42.944,0,0,1-5.674-1.3,18.875,18.875,0,0,1-5.5-2.543c-2.258-1.651-2.732-3.406-2.732-4.591a1.994,1.994,0,0,1,1.994-1.993,1.994,1.994,0,0,1,1.994,1.993c0,.275.288.779,1.1,1.368a15.246,15.246,0,0,0,4.327,1.954,38.9,38.9,0,0,0,5.142,1.171,1.994,1.994,0,0,1,1.647,2.289,1.994,1.994,0,0,1-1.966,1.674A1.971,1.971,0,0,1-919.544-519.743Zm19.67-1.672a1.994,1.994,0,0,1,1.639-2.295,38.786,38.786,0,0,0,4.95-1.136,15.359,15.359,0,0,0,4.324-1.957c.8-.583,1.088-1.1,1.088-1.363a2,2,0,0,1,1.994-1.994,2,2,0,0,1,1.994,1.994c0,1.185-.474,2.943-2.732,4.589a18.979,18.979,0,0,1-5.5,2.542,42.87,42.87,0,0,1-5.465,1.257,1.978,1.978,0,0,1-.331.027A2,2,0,0,1-899.874-521.415Zm-25.111-11a18.8,18.8,0,0,1-5.507-2.543c-2.257-1.648-2.732-3.4-2.73-4.588s.474-2.947,2.733-4.59a18.945,18.945,0,0,1,5.495-2.542,58.875,58.875,0,0,1,16.56-2.12,58.541,58.541,0,0,1,16.554,2.125,18.8,18.8,0,0,1,5.5,2.542c2.258,1.633,2.733,3.4,2.733,4.591s-.474,2.943-2.731,4.589a18.972,18.972,0,0,1-5.5,2.542,58.776,58.776,0,0,1-16.555,2.122A58.536,58.536,0,0,1-924.985-532.418Zm1.162-10.451a15.328,15.328,0,0,0-4.321,1.954c-.805.587-1.091,1.1-1.092,1.366s.287.778,1.1,1.367a14.987,14.987,0,0,0,4.327,1.954,54.541,54.541,0,0,0,15.377,1.949,54.7,54.7,0,0,0,15.382-1.946,15.313,15.313,0,0,0,4.323-1.955c.8-.586,1.09-1.09,1.09-1.365s-.285-.781-1.087-1.362a15.008,15.008,0,0,0-4.327-1.959,54.541,54.541,0,0,0-15.38-1.948A54.828,54.828,0,0,0-923.823-542.869Z" transform="translate(1713.767 1054.392)" fill="url(#linear-gradient-10)"/>
        <path id="send" d="M20.117,54.413a1.493,1.493,0,0,1-.993-.248,2.854,2.854,0,0,1-1.49-2.235V37.773a2.255,2.255,0,0,1,.745-1.738L36.509,18.4a2.459,2.459,0,1,1,3.477,3.477L22.6,38.766v7.947l5.961-4.719a2.6,2.6,0,0,1,2.98-.248l9.934,6.209,7.7-41.227L7.7,27.093l6.209,3.725a2.514,2.514,0,1,1-2.732,4.222L1.242,28.832A2.212,2.212,0,0,1,0,26.845a1.889,1.889,0,0,1,1.49-1.987L51.162.271a2.285,2.285,0,0,1,2.484.248A2.88,2.88,0,0,1,54.639,3L45.449,52.674a2.626,2.626,0,0,1-1.49,1.738,2.334,2.334,0,0,1-2.235-.248l-11.673-7.2-8.444,6.954a3.53,3.53,0,0,1-1.49.5Z" transform="matrix(0.966, 0.259, -0.259, 0.966, 233.993, 652.04)" fill="url(#linear-gradient-11)"/>
        <g id="Hacks" transform="translate(747.588 179.741)">
          <circle id="dot-14" data-name="dot" cx="54.093" cy="54.093" r="54.093" transform="translate(0 0)" fill="url(#linear-gradient-12)"/>
          <text id="Hacks-2" data-name="Hacks" transform="translate(55.839 64.852)" fill="#fff" font-size="28" font-family="Alphakind"><tspan x="-39.396" y="0">Hacks</tspan></text>
        </g>
        <g id="Illegal-4" data-name="Illegal" transform="translate(817.257 257.24)">
          <g id="dot-15" data-name="dot" transform="translate(0 0)" fill="#ed5174">
            <path d="M 17.85885429382324 34.71770477294922 C 13.35569381713867 34.71770477294922 9.122064590454102 32.96407318115234 5.937844276428223 29.77986335754395 C 2.753634214401245 26.59564399719238 1.000004291534424 22.36201477050781 1.000004291534424 17.85885429382324 C 1.000004291534424 13.35569381713867 2.753634214401245 9.122064590454102 5.937844276428223 5.937844276428223 C 9.122064590454102 2.753634214401245 13.35569381713867 1.000004291534424 17.85885429382324 1.000004291534424 C 22.36201477050781 1.000004291534424 26.59564399719238 2.753634214401245 29.77986335754395 5.937844276428223 C 32.96407318115234 9.122064590454102 34.71770477294922 13.35569381713867 34.71770477294922 17.85885429382324 C 34.71770477294922 22.36201477050781 32.96407318115234 26.59564399719238 29.77986335754395 29.77986335754395 C 26.59564399719238 32.96407318115234 22.36201477050781 34.71770477294922 17.85885429382324 34.71770477294922 Z" stroke="none"/>
            <path d="M 17.85885429382324 2.000003814697266 C 13.62280464172363 2.000003814697266 9.640295028686523 3.649612426757813 6.644954681396484 6.644954681396484 C 3.649612426757813 9.640295028686523 2.000003814697266 13.62280464172363 2.000003814697266 17.85885429382324 C 2.000003814697266 22.09490394592285 3.649612426757813 26.07741546630859 6.644954681396484 29.07275390625 C 9.640295028686523 32.06809234619141 13.62280464172363 33.71770477294922 17.85885429382324 33.71770477294922 C 22.09490394592285 33.71770477294922 26.07741546630859 32.06809234619141 29.07275390625 29.07275390625 C 32.06809234619141 26.07741546630859 33.71770477294922 22.09490394592285 33.71770477294922 17.85885429382324 C 33.71770477294922 13.62280464172363 32.06809234619141 9.640295028686523 29.07275390625 6.644954681396484 C 26.07741546630859 3.649612426757813 22.09490394592285 2.000003814697266 17.85885429382324 2.000003814697266 M 17.85885429382324 3.814697265625e-06 C 27.72202491760254 3.814697265625e-06 35.71770477294922 7.995683670043945 35.71770477294922 17.85885429382324 C 35.71770477294922 27.72202491760254 27.72202491760254 35.71770477294922 17.85885429382324 35.71770477294922 C 7.995683670043945 35.71770477294922 3.814697265625e-06 27.72202491760254 3.814697265625e-06 17.85885429382324 C 3.814697265625e-06 7.995683670043945 7.995683670043945 3.814697265625e-06 17.85885429382324 3.814697265625e-06 Z" stroke="none" fill="#11162c"/>
          </g>
          <rect id="line-4" data-name="line" width="21.431" height="4.286" transform="translate(7.144 15.716)" fill="#fff"/>
        </g>
      </g>
    </g>
  </g>
</svg>
