<?xml version="1.0" standalone="no"?><!DOCTYPE svg PUBLIC "-//W3C//DTD SVG 1.1//EN" "http://www.w3.org/Graphics/SVG/1.1/DTD/svg11.dtd"><svg t="1620443964262" class="icon" viewBox="0 0 1024 1024" version="1.1" xmlns="http://www.w3.org/2000/svg" p-id="2173" xmlns:xlink="http://www.w3.org/1999/xlink" width="200" height="200"><defs><style type="text/css"></style></defs><path d="M920.963699 465.92c-51.256231 0-92.811098 41.554867-92.811098 92.811098 0 9.068023 1.322913 17.822335 3.749734 26.106081l-295.459514 155.372763c-16.96111-22.158058-43.670936-36.461503-73.733919-36.461503-36.41711 0-67.915468 20.986081-83.112694 51.510752L134.966751 622.538728s-63.80763-26.100162-66.707976-89.910751c-2.900347-63.80763 14.501734-79.759538 52.206242-60.907283l301.63607 159.519075s26.103121 15.951908 46.405549 2.897387l495.962266-258.130867s18.849295-29.003468-8.701041-37.704509L619.324671 178.785665s-27.550335-26.103121-81.206752 0l-469.856185 234.928092s-81.209711 23.202775-49.305896 162.419422c0 0 20.302428 55.10659 52.206243 78.309364l299.724208 155.627284c6.540578 44.851792 45.153665 79.300809 91.819653 79.300809 51.259191 0 92.814058-41.551908 92.814058-92.808139 0-0.671815-0.038474-1.331792-0.053272-2.000647l305.590012-164.964625a92.41452 92.41452 0 0 0 59.904 21.947931c51.256231 0 92.808139-41.554867 92.808139-92.811098s-41.548948-92.814058-92.80518-92.814058zM461.255769 824.459098c-16.212347 0-29.349734-13.137387-29.349734-29.349734s13.140347-29.352694 29.349734-29.352693c16.209387 0 29.349734 13.140347 29.349734 29.352693s-13.137387 29.349734-29.349734 29.349734z m458.254797-237.82548c-16.212347 0-29.352694-13.140347-29.352693-29.352693s13.140347-29.349734 29.352693-29.349734 29.352694 13.137387 29.352694 29.349734-13.140347 29.352694-29.352694 29.352693z" p-id="2174" fill="#8F92AA"></path></svg>