<?xml version="1.0" standalone="no"?><!DOCTYPE svg PUBLIC "-//W3C//DTD SVG 1.1//EN" "http://www.w3.org/Graphics/SVG/1.1/DTD/svg11.dtd"><svg t="1620443733901" class="icon" viewBox="0 0 1024 1024" version="1.1" xmlns="http://www.w3.org/2000/svg" p-id="1513" xmlns:xlink="http://www.w3.org/1999/xlink" width="200" height="200"><defs><style type="text/css"></style></defs><path d="M880.8 246.628571l70.057143-67.314285V164.571429H708.228571L535.314286 597.028571 338.628571 164.571429H84.228571v14.742857l81.828572 98.971428c8 7.314286 12.114286 18.057143 11.085714 28.8V696c2.514286 14.057143-1.942857 28.342857-11.771428 38.514286L73.142857 846.857143v14.514286h261.257143v-14.742858l-92.114286-112a45.702857 45.702857 0 0 1-12.685714-38.514285V359.657143l229.371429 501.942857h26.628571l197.257143-501.942857v399.885714c0 10.514286 0 12.685714-6.857143 19.657143l-70.971429 68.914286V862.857143h344.228572v-14.742857l-68.457143-67.314286c-5.942857-4.571429-9.028571-12.228571-7.771429-19.657143V266.285714a20.685714 20.685714 0 0 1 7.771429-19.657143z" p-id="1514" fill="#8F92AA"></path></svg>